<svg xmlns="http://www.w3.org/2000/svg"  viewBox="0 0 48 48" width="96px" height="96px"><path fill="#010101" d="M44.89,23.75c0-0.02,0.01-0.05,0.01-0.08c-0.08-1.59-0.33-3.19-0.63-4.76	c-0.29-1.48-0.69-2.87-1.46-4.18c-0.8-1.34-1.83-2.52-2.91-3.63c-1.14-1.19-2.31-2.48-3.71-3.35c-1.21-0.74-2.34-0.97-3.7-0.54	c-0.48,0.15-0.89,0.34-1.13,0.8c-0.31,0.6-0.35,1.32-0.22,1.97c0.3,1.49,1.73,2.55,2.76,3.55c1.21,1.18,2.17,2.72,2.92,4.23	c0.76,1.54,1.42,3.3,1.17,5.04c-0.21,1.44-0.81,2.89-1.66,4.09c-0.37-0.57-0.66-1.22-1.04-1.77c-0.43-0.63-0.96-1.14-1.6-1.24	c-0.01-0.2-0.07-0.42-0.22-0.68c-0.39-0.67-1.06-1.13-1.79-1.38c-1.76-0.61-3.54,0.13-4.91,1.26c-1.74,1.42-3.19,3.3-4.62,5.03	c-1.23,1.5-2.43,3.41-4.25,4.25c-0.36,0.16-0.97,0.41-1.38,0.31c-0.55-0.13-0.53-1.31-0.58-1.75c-0.15-1.18-0.2-2.38-0.17-3.58	c0.1-4.79,1.29-9.47,1.79-14.22c0.21-1.94,0.68-4.42-0.7-6.05c-1.16-1.37-3.1-1.24-4.6-0.55c-0.84,0.38-1.55,0.98-2.13,1.69	c-0.65,0.82-1.4,1.55-2.03,2.38c-0.66,0.86-1.17,1.84-1.68,2.79c-1.05,1.94-1.97,3.97-2.58,6.09c-1.11,3.81-1.08,7.85,0.32,11.59	c1.34,3.59,3.77,6.63,7.03,8.66c1.79,1.11,3.64,2.07,5.77,2.25c1.99,0.16,3.98-0.32,5.68-1.35c1.74-1.05,3.11-2.57,4.33-4.18	c0.83-1.11,1.39-2.33,1.86-3.59c0.54,0.89,1.42,1.7,2.04,2.35c1.36,1.4,3.2,2.61,5.19,2.77c1.96,0.15,3.77-1.01,5.11-2.34	c1.48-1.46,2.4-3.36,3.01-5.33C44.84,28.19,45.06,25.96,44.89,23.75z M38.97,20.92c-0.26-1.47-0.87-2.92-1.58-4.22	c-0.7-1.29-1.54-2.6-2.56-3.65c-0.96-0.99-2.63-2.06-2.76-3.55c-0.05-0.64,0.07-1.13,0.69-1.32c0.6-0.2,1.21-0.32,1.82-0.12	c1.51,0.5,2.67,1.8,3.76,2.88c1.07,1.06,2.13,2.15,3,3.38c0.94,1.32,1.53,2.72,1.85,4.3c0.3,1.44,0.54,2.9,0.66,4.37	c0,0.01-0.01,0.02-0.01,0.04c0.07,0.88-0.39,1.65-0.85,2.37c-0.4,0.63-0.86,1.22-1.42,1.73c-1.01,0.91-2.43,1.44-3.77,1	c-0.31-0.1-0.57-0.26-0.79-0.45C38.39,25.8,39.37,23.23,38.97,20.92z M7.42,34.93c-0.46-0.6-0.89-1.23-1.25-1.89	c-1.74-3.12-2.47-6.81-2-10.36c0.28-2.11,0.93-4.17,1.79-6.12c0.81-1.82,1.72-3.79,2.94-5.39c0.6-0.79,1.32-1.48,1.94-2.25	c1-1.23,3-2.51,4.63-1.71c1.89,0.93,1.29,3.9,1.13,5.56c-0.44,4.42-1.49,8.75-1.77,13.18c-0.13,2.13-0.08,4.27,0.32,6.37	c0.03,0.16,0.07,0.28,0.12,0.41c-1.31,0.15-2.65,0.31-3.89,0.73C10.04,33.91,8.87,34.93,7.42,34.93z M20.25,40.62	c-1.9,0.6-3.97,0.47-5.8-0.27c-2.39-0.97-4.55-2.54-6.26-4.48c0.4-0.07,0.79-0.19,1.18-0.37c0.67-0.31,1.3-0.72,2-0.98	c1.37-0.51,2.88-0.67,4.33-0.84c0.69,1.43,1.6,2.78,2.9,3.71c1.26,0.9,2.9,1.59,4.51,1.69C22.25,39.75,21.29,40.29,20.25,40.62z M28.07,32.06c-0.7,2.09-1.8,3.81-3.27,5.45c-0.16,0.18-0.33,0.36-0.51,0.53c-1.75,0.33-3.78-0.5-5.18-1.51	c-1-0.72-1.75-1.77-2.32-2.87c0.77-0.06,1.51-0.33,2.17-0.74c1.57-0.99,2.66-2.59,3.82-4.01c1.34-1.62,2.69-3.3,4.24-4.73	c1.27-1.17,3.19-2.2,4.87-1.18c0.28,0.17,0.69,0.48,0.77,0.81c0.08,0.35-0.58,0.65-0.84,0.87c-0.67,0.57-1.23,1.28-1.68,2.04	C29.16,28.38,28.69,30.26,28.07,32.06z M39.35,35.88c-0.91,0.64-1.95,1.14-3.08,1.1c-1.19-0.05-2.29-0.61-3.26-1.26	c-0.9-0.6-1.61-1.41-2.33-2.2c-0.47-0.53-1.29-1.3-1.33-2.05c0-0.02-0.01-0.04-0.02-0.06c0.11-0.32,0.21-0.63,0.31-0.95	c0.64-1.95,1.45-4.05,3.17-5.29c0.11-0.08,0.21-0.16,0.3-0.23c0.03-0.01,0.05-0.01,0.08-0.03c0.65-0.31,1.1,0.5,1.4,0.96	c0.42,0.63,0.71,1.34,1.17,1.95c0.8,1.09,2.12,1.57,3.45,1.44c1.44-0.13,2.67-0.92,3.62-1.98c0.37-0.43,0.77-0.92,1.12-1.45	C43.8,29.64,42.45,33.66,39.35,35.88z"/><path fill="#8a4581" d="M43.85,22.99c0,0.01-0.01,0.02-0.01,0.04c0.07,0.88-0.39,1.65-0.85,2.37	c-0.4,0.63-0.86,1.22-1.42,1.73c-1.01,0.91-2.43,1.44-3.77,1c-0.31-0.1-0.57-0.26-0.79-0.45c1.38-1.88,2.36-4.45,1.96-6.76	c-0.26-1.47-0.87-2.92-1.58-4.22c-0.7-1.29-1.54-2.6-2.56-3.65c-0.96-0.99-2.63-2.06-2.76-3.55c-0.05-0.64,0.07-1.13,0.69-1.32	c0.6-0.2,1.21-0.32,1.82-0.12c1.51,0.5,2.67,1.8,3.76,2.88c1.07,1.06,2.13,2.15,3,3.38c0.94,1.32,1.53,2.72,1.85,4.3	C43.49,20.06,43.73,21.52,43.85,22.99z"/><path fill="#ed488b" d="M43.95,25.83c-0.15,3.81-1.5,7.83-4.6,10.05c-0.91,0.64-1.95,1.14-3.08,1.1	c-1.19-0.05-2.29-0.61-3.26-1.26c-0.9-0.6-1.61-1.41-2.33-2.2c-0.47-0.53-1.29-1.3-1.33-2.05c0-0.02-0.01-0.04-0.02-0.06	c0.11-0.32,0.21-0.63,0.31-0.95c0.64-1.95,1.45-4.05,3.17-5.29c0.11-0.08,0.21-0.16,0.3-0.23c0.03-0.01,0.05-0.01,0.08-0.03	c0.65-0.31,1.1,0.5,1.4,0.96c0.42,0.63,0.71,1.34,1.17,1.95c0.8,1.09,2.12,1.57,3.45,1.44c1.44-0.13,2.67-0.92,3.62-1.98	C43.2,26.85,43.6,26.36,43.95,25.83z"/><path fill="#ef4823" d="M32.66,23.81c0.08,0.35-0.58,0.65-0.84,0.87c-0.67,0.57-1.23,1.28-1.68,2.04	c-0.98,1.66-1.45,3.54-2.07,5.34c-0.7,2.09-1.8,3.81-3.27,5.45c-0.16,0.18-0.33,0.36-0.51,0.53c-1.75,0.33-3.78-0.5-5.18-1.51	c-1-0.72-1.75-1.77-2.32-2.87c0.77-0.06,1.51-0.33,2.17-0.74c1.57-0.99,2.66-2.59,3.82-4.01c1.34-1.62,2.69-3.3,4.24-4.73	c1.27-1.17,3.19-2.2,4.87-1.18C32.17,23.17,32.58,23.48,32.66,23.81z"/><path fill="#f58420" d="M23.11,39.08c-0.86,0.67-1.82,1.21-2.86,1.54c-1.9,0.6-3.97,0.47-5.8-0.27	c-2.39-0.97-4.55-2.54-6.26-4.48c0.4-0.07,0.79-0.19,1.18-0.37c0.67-0.31,1.3-0.72,2-0.98c1.37-0.51,2.88-0.67,4.33-0.84	c0.69,1.43,1.6,2.78,2.9,3.71C19.86,38.29,21.5,38.98,23.11,39.08z"/><path fill="#febf10" d="M14.83,25.95c-0.13,2.13-0.08,4.27,0.32,6.37c0.03,0.16,0.07,0.28,0.12,0.41	c-1.31,0.15-2.65,0.31-3.89,0.73c-1.34,0.45-2.51,1.47-3.96,1.47c-0.46-0.6-0.89-1.23-1.25-1.89c-1.74-3.12-2.47-6.81-2-10.36	c0.28-2.11,0.93-4.17,1.79-6.12c0.81-1.82,1.72-3.79,2.94-5.39c0.6-0.79,1.32-1.48,1.94-2.25c1-1.23,3-2.51,4.63-1.71	c1.89,0.93,1.29,3.9,1.13,5.56C16.16,17.19,15.11,21.52,14.83,25.95z"/></svg>